<svg width="568" height="569" viewBox="0 0 568 569" fill="none" xmlns="http://www.w3.org/2000/svg">
<path d="M397.6 213.768H301.75V318.848L350.74 269.858C354.29 266.308 358.786 264.651 363.283 264.651C367.78 264.651 372.276 266.308 375.826 269.858C382.69 276.721 382.69 288.081 375.826 294.944L296.543 374.228C289.68 381.091 278.32 381.091 271.456 374.228L192.173 294.944C185.31 288.081 185.31 276.721 192.173 269.858C199.036 262.994 210.396 262.994 217.26 269.858L266.25 318.848V213.768H170.4C94.6663 213.768 47.333 261.101 47.333 336.834V398.131C47.333 474.101 94.6663 521.434 170.4 521.434H397.363C473.096 521.434 520.43 474.101 520.43 398.368V336.834C520.666 261.101 473.333 213.768 397.6 213.768Z" fill="#989898"/>
<path d="M301.754 65.8512C301.754 56.1479 293.707 48.1012 284.004 48.1012C274.301 48.1012 266.254 56.1479 266.254 65.8512V213.768H301.754V65.8512Z" fill="#989898"/>
</svg>
