<svg width="138" height="138" viewBox="0 0 138 138" fill="none" xmlns="http://www.w3.org/2000/svg">
<path d="M41.2684 85.9764L64.4821 85.9764L64.4821 60.5274L52.6173 72.3921C51.7576 73.2519 50.6685 73.6531 49.5795 73.6531C48.4904 73.6531 47.4014 73.2519 46.5416 72.3921C44.8794 70.7299 44.8794 67.9787 46.5416 66.3165L65.7431 47.115C67.4053 45.4528 70.1565 45.4528 71.8188 47.115L91.0202 66.3165C92.6824 67.9787 92.6824 70.7299 91.0202 72.3921C89.358 74.0544 86.6067 74.0544 84.9445 72.3921L73.0797 60.5274L73.0797 85.9764L96.2934 85.9764C114.635 85.9764 126.099 74.5129 126.099 56.1712L126.099 41.3259C126.099 22.9269 114.635 11.4634 96.2934 11.4634L41.3257 11.4634C22.9841 11.4634 11.5205 22.9269 11.5205 41.2686L11.5205 56.1712C11.4632 74.5129 22.9267 85.9764 41.2684 85.9764Z" fill="#EFEFEF"/>
<path d="M64.4814 121.8C64.4814 124.15 66.4302 126.099 68.7803 126.099C71.1303 126.099 73.0791 124.15 73.0791 121.8L73.0791 85.9764L64.4814 85.9764L64.4814 121.8Z" fill="#EFEFEF"/>
</svg>
